<?xml version="1.0" standalone="yes"?>
<svg xmlns="http://www.w3.org/2000/svg" width="500" height="500">
<path style="fill:#ffffff; stroke:none;" d="M0 0L0 500L500 500L500 0L0 0z"/>
<path style="fill:#aab5bd; stroke:none;" d="M121 196L122 197L121 196z"/>
<path style="fill:#758793; stroke:none;" d="M122 196L123 197L122 196z"/>
<path style="fill:#4b6271; stroke:none;" d="M123.667 196.333L124.333 196.667L123.667 196.333z"/>
<path style="fill:#213d4f; stroke:none;" d="M108 306L131 306L131 234C131 227.578 128.12 213.434 137.005 212.152C149.545 210.342 147 224.946 147 233L147 306L169 306L169 234C169 224.451 171.411 211.192 165.351 203.044C156.284 190.852 116.852 191.871 110.05 206.004C105.71 215.023 108 228.24 108 238L108 306z"/>
<path style="fill:#4b6271; stroke:none;" d="M152.667 196.333L153.333 196.667L152.667 196.333z"/>
<path style="fill:#758793; stroke:none;" d="M154 196L155 197L154 196z"/>
<path style="fill:#aab5bd; stroke:none;" d="M155 196L156 197L155 196M118 197L119 198L118 197z"/>
<path style="fill:#4b6271; stroke:none;" d="M119 197L120 198L119 197M157 197L158 198L157 197z"/>
<path style="fill:#758793; stroke:none;" d="M158 197L159 198L158 197z"/>
<path style="fill:#aab5bd; stroke:none;" d="M183 200L184 200C188.595 196.519 201.405 196.519 206 200C207.191 196.453 184.249 194.171 183 200M233 197L233 198L255 198L233 197M279 197L279 198L284 198L279 197M307 197L307 198L356 198L356 218C357.556 214.292 358.948 200.84 355.397 198.028C352.457 195.699 345.531 197 342 197L307 197M366 197L366 198L388 198L366 197M414 197L414 198L436 198L414 197M116 198L117 199L116 198z"/>
<path style="fill:#758793; stroke:none;" d="M160 198L161 199L160 198z"/>
<path style="fill:#213d4f; stroke:none;" d="M184 198L206 306C212.1 306 226.444 308.668 231.436 304.972C236.782 301.015 237.039 283.307 238.424 277C244.185 250.773 248.275 223.995 255 198L233 198L220 276L219 276L206 198L184 198z"/>
<path style="fill:#758793; stroke:none;" d="M232.333 198.667L232.667 199.333L232.333 198.667z"/>
<path style="fill:#4b6271; stroke:none;" d="M277 198L278 199L277 198z"/>
<path style="fill:#213d4f; stroke:none;" d="M278.043 198.746C274.149 200.267 272.386 204.646 270.397 208C265.712 215.898 258.466 225.04 256.198 234C254.757 239.693 259.671 246.081 265.895 244.013C269.598 242.783 271.364 238.082 273.201 235C278.016 226.919 286.995 216.177 288.993 207C290.297 201.013 283.273 196.704 278.043 198.746z"/>
<path style="fill:#4b6271; stroke:none;" d="M284 198L285 199L284 198z"/>
<path style="fill:#aab5bd; stroke:none;" d="M285 198L286 199L285 198z"/>
<path style="fill:#758793; stroke:none;" d="M307 198L307 306L308 306L308 231L307 198z"/>
<path style="fill:#213d4f; stroke:none;" d="M308 198L308 306L330 306L330 275L332.318 264.028L354 263L354 244L330 244C330 238.193 327.294 222.913 331.603 218.603C335.804 214.403 350.358 217 356 217L356 198L308 198z"/>
<path style="fill:#758793; stroke:none;" d="M366 198L367 199L366 198z"/>
<path style="fill:#213d4f; stroke:none;" d="M367 198L389.482 266L390 306L413 306L413.518 265L435 198L414 198L401 243L391.86 211L387.297 199.028L367 198z"/>
<path style="fill:#758793; stroke:none;" d="M388 198L389 199L388 198z"/>
<path style="fill:#4b6271; stroke:none;" d="M435 198L436 199L435 198z"/>
<path style="fill:#aab5bd; stroke:none;" d="M75 199L76 200L75 199z"/>
<path style="fill:#758793; stroke:none;" d="M76 199L77 200L76 199z"/>
<path style="fill:#4b6271; stroke:none;" d="M77 199L77 200L80 200L77 199z"/>
<path style="fill:#758793; stroke:none;" d="M80 199L81 200L80 199z"/>
<path style="fill:#aab5bd; stroke:none;" d="M114 199L115 200L114 199z"/>
<path style="fill:#4b6271; stroke:none;" d="M115 199L116 200L115 199z"/>
<path style="fill:#aab5bd; stroke:none;" d="M162 199L163 200L162 199z"/>
<path style="fill:#4b6271; stroke:none;" d="M254 199L255 200L254 199z"/>
<path style="fill:#aab5bd; stroke:none;" d="M275 199L276 200L275 199z"/>
<path style="fill:#4b6271; stroke:none;" d="M286 199L287 200L286 199z"/>
<path style="fill:#aab5bd; stroke:none;" d="M366 199L367 200L366 199z"/>
<path style="fill:#4b6271; stroke:none;" d="M388 199L389 200L388 199z"/>
<path style="fill:#aab5bd; stroke:none;" d="M413 199L414 200L413 199z"/>
<path style="fill:#758793; stroke:none;" d="M435 199L436 200L435 199z"/>
<path style="fill:#aab5bd; stroke:none;" d="M73 200L74 201L73 200z"/>
<path style="fill:#213d4f; stroke:none;" d="M74.1049 201.028C66.5398 205.207 55.953 226.749 53.6389 235C51.9164 241.141 56.9045 248.33 63.787 245.396C66.9546 244.046 68.5483 239.773 70.2006 237C74.8487 229.2 85.2324 217.02 86.287 208.001C87.0336 201.617 79.1627 198.234 74.1049 201.028z"/>
<path style="fill:#4b6271; stroke:none;" d="M82 200L83 201L82 200z"/>
<path style="fill:#aab5bd; stroke:none;" d="M113 200L114 201L113 200z"/>
<path style="fill:#758793; stroke:none;" d="M163 200L164 201L163 200M206 200L207 201L206 200z"/>
<path style="fill:#4b6271; stroke:none;" d="M232 200L233 201L232 200z"/>
<path style="fill:#758793; stroke:none;" d="M254 200L255 201L254 200z"/>
<path style="fill:#4b6271; stroke:none;" d="M287 200L288 201L287 200M367 200L368 201L367 200M413 200L414 201L413 200z"/>
<path style="fill:#aab5bd; stroke:none;" d="M435 200L436 201L435 200z"/>
<path style="fill:#758793; stroke:none;" d="M72 201L73 202L72 201z"/>
<path style="fill:#aab5bd; stroke:none;" d="M84 201L85 202L84 201M112 201L113 202L112 201z"/>
<path style="fill:#758793; stroke:none;" d="M164 201L165 202L164 201z"/>
<path style="fill:#4b6271; stroke:none;" d="M184 201L185 202L184 201M206 201L207 202L206 201z"/>
<path style="fill:#aab5bd; stroke:none;" d="M254.333 201.667L254.667 202.333L254.333 201.667z"/>
<path style="fill:#758793; stroke:none;" d="M288 201L289 202L288 201M367 201L368 202L367 201z"/>
<path style="fill:#aab5bd; stroke:none;" d="M389 201L390 202L389 201z"/>
<path style="fill:#4b6271; stroke:none;" d="M434 201L435 202L434 201z"/>
<path style="fill:#aab5bd; stroke:none;" d="M111 202L112 203L111 202M165 202L166 203L165 202z"/>
<path style="fill:#758793; stroke:none;" d="M184 202L185 203L184 202z"/>
<path style="fill:#aab5bd; stroke:none;" d="M231.333 202.667L231.667 203.333L231.333 202.667M273 202L274 203L273 202z"/>
<path style="fill:#758793; stroke:none;" d="M389 202L390 203L389 202z"/>
<path style="fill:#aab5bd; stroke:none;" d="M412 202L413 203L412 202z"/>
<path style="fill:#758793; stroke:none;" d="M434 202L435 203L434 202z"/>
<path style="fill:#4b6271; stroke:none;" d="M85 203L86 204L85 203M111 203L112 204L111 203z"/>
<path style="fill:#aab5bd; stroke:none;" d="M184.333 203.667L184.667 204.333L184.333 203.667z"/>
<path style="fill:#758793; stroke:none;" d="M289 203L290 204L289 203z"/>
<path style="fill:#4b6271; stroke:none;" d="M368 203L369 204L368 203z"/>
<path style="fill:#758793; stroke:none;" d="M412 203L413 204L412 203z"/>
<path style="fill:#aab5bd; stroke:none;" d="M434 203L435 204L434 203M70 204L71 205L70 204M86 204L87 205L86 204z"/>
<path style="fill:#758793; stroke:none;" d="M110 204L111 205L110 204z"/>
<path style="fill:#4b6271; stroke:none;" d="M166 204L167 205L166 204z"/>
<path style="fill:#aab5bd; stroke:none;" d="M207.333 204.667L207.667 205.333L207.333 204.667z"/>
<path style="fill:#758793; stroke:none;" d="M231 204L232 205L231 204z"/>
<path style="fill:#4b6271; stroke:none;" d="M253 204L254 205L253 204z"/>
<path style="fill:#758793; stroke:none;" d="M272 204L273 205L272 204z"/>
<path style="fill:#4b6271; stroke:none;" d="M289 204L290 205L289 204z"/>
<path style="fill:#758793; stroke:none;" d="M368 204L369 205L368 204z"/>
<path style="fill:#aab5bd; stroke:none;" d="M390 204L391 205L390 204z"/>
<path style="fill:#4b6271; stroke:none;" d="M412 204L413 205L412 204M433 204L434 205L433 204z"/>
<path style="fill:#758793; stroke:none;" d="M86 205L87 206L86 205z"/>
<path style="fill:#aab5bd; stroke:none;" d="M167 205L168 206L167 205z"/>
<path style="fill:#4b6271; stroke:none;" d="M231.333 205.667L231.667 206.333L231.333 205.667z"/>
<path style="fill:#758793; stroke:none;" d="M253 205L254 206L253 205M390 205L391 206L390 205M433 205L434 206L433 205M69 206L70 207L69 206M109 206L110 207L109 206z"/>
<path style="fill:#4b6271; stroke:none;" d="M167 206L168 207L167 206M185 206L186 207L185 206z"/>
<path style="fill:#758793; stroke:none;" d="M207 206L208 207L207 206z"/>
<path style="fill:#aab5bd; stroke:none;" d="M253 206L254 207L253 206z"/>
<path style="fill:#4b6271; stroke:none;" d="M271 206L272 207L271 206M369 206L370 207L369 206M390 206L391 207L390 206z"/>
<path style="fill:#aab5bd; stroke:none;" d="M411 206L412 207L411 206M433 206L434 207L433 206z"/>
<path style="fill:#758793; stroke:none;" d="M185 207L186 208L185 207z"/>
<path style="fill:#4b6271; stroke:none;" d="M207 207L208 208L207 207z"/>
<path style="fill:#aab5bd; stroke:none;" d="M270 207L271 208L270 207M289 207L290 208L289 207M369 207L370 208L369 207z"/>
<path style="fill:#4b6271; stroke:none;" d="M411 207L412 208L411 207M432 207L433 208L432 207M68 208L69 209L68 208z"/>
<path style="fill:#aab5bd; stroke:none;" d="M108 208L109 209L108 208z"/>
<path style="fill:#758793; stroke:none;" d="M168 208L169 209L168 208z"/>
<path style="fill:#aab5bd; stroke:none;" d="M185.333 208.667L185.667 209.333L185.333 208.667M230.333 208.667L230.667 209.333L230.333 208.667z"/>
<path style="fill:#4b6271; stroke:none;" d="M288 208L289 209L288 208z"/>
<path style="fill:#aab5bd; stroke:none;" d="M391 208L392 209L391 208z"/>
<path style="fill:#758793; stroke:none;" d="M432 208L433 209L432 208z"/>
<path style="fill:#aab5bd; stroke:none;" d="M67 209L68 210L67 209M86 209L87 210L86 209z"/>
<path style="fill:#758793; stroke:none;" d="M108 209L109 210L108 209z"/>
<path style="fill:#4b6271; stroke:none;" d="M168 209L169 210L168 209M252 209L253 210L252 209z"/>
<path style="fill:#aab5bd; stroke:none;" d="M269 209L270 210L269 209z"/>
<path style="fill:#4b6271; stroke:none;" d="M370 209L371 210L370 209z"/>
<path style="fill:#758793; stroke:none;" d="M391 209L392 210L391 209z"/>
<path style="fill:#aab5bd; stroke:none;" d="M410 209L411 210L410 209z"/>
<path style="fill:#4b6271; stroke:none;" d="M85 210L86 211L85 210M108 210L109 211L108 210z"/>
<path style="fill:#aab5bd; stroke:none;" d="M208.333 210.667L208.667 211.333L208.333 210.667z"/>
<path style="fill:#758793; stroke:none;" d="M230 210L231 211L230 210M252 210L253 211L252 210M287 210L288 211L287 210z"/>
<path style="fill:#aab5bd; stroke:none;" d="M370 210L371 211L370 210z"/>
<path style="fill:#758793; stroke:none;" d="M410 210L411 211L410 210z"/>
<path style="fill:#4b6271; stroke:none;" d="M431 210L432 211L431 210z"/>
<path style="fill:#758793; stroke:none;" d="M66 211L67 212L66 211z"/>
<path style="fill:#aab5bd; stroke:none;" d="M169.333 211.667L169.667 212.333L169.333 211.667z"/>
<path style="fill:#4b6271; stroke:none;" d="M186 211L187 212L186 211M230.333 211.667L230.667 212.333L230.333 211.667z"/>
<path style="fill:#aab5bd; stroke:none;" d="M252 211L253 212L252 211z"/>
<path style="fill:#758793; stroke:none;" d="M268 211L269 212L268 211z"/>
<path style="fill:#aab5bd; stroke:none;" d="M392 211L393 212L392 211z"/>
<path style="fill:#4b6271; stroke:none;" d="M410 211L411 212L410 211z"/>
<path style="fill:#758793; stroke:none;" d="M431 211L432 212L431 211M84 212L85 213L84 212z"/>
<path style="fill:#4b6271; stroke:none;" d="M133 212L134 213L133 212z"/>
<path style="fill:#758793; stroke:none;" d="M134 212L134 213L143 213L134 212z"/>
<path style="fill:#4b6271; stroke:none;" d="M143 212L144 213L143 212z"/>
<path style="fill:#758793; stroke:none;" d="M186 212L187 213L186 212M208 212L209 213L208 212z"/>
<path style="fill:#aab5bd; stroke:none;" d="M286 212L287 213L286 212z"/>
<path style="fill:#4b6271; stroke:none;" d="M371 212L372 213L371 212z"/>
<path style="fill:#758793; stroke:none;" d="M392 212L393 213L392 212z"/>
<path style="fill:#4b6271; stroke:none;" d="M65 213L66 214L65 213z"/>
<path style="fill:#aab5bd; stroke:none;" d="M107 213L107 216L108 216L107 213z"/>
<path style="fill:#4b6271; stroke:none;" d="M145 213L146 214L145 213z"/>
<path style="fill:#758793; stroke:none;" d="M169 213L169 216L170 216L169 213z"/>
<path style="fill:#aab5bd; stroke:none;" d="M186 213L187 214L186 213z"/>
<path style="fill:#4b6271; stroke:none;" d="M208 213L209 214L208 213M285 213L286 214L285 213z"/>
<path style="fill:#aab5bd; stroke:none;" d="M371 213L372 214L371 213z"/>
<path style="fill:#4b6271; stroke:none;" d="M392 213L393 214L392 213z"/>
<path style="fill:#aab5bd; stroke:none;" d="M409 213L410 214L409 213z"/>
<path style="fill:#4b6271; stroke:none;" d="M430 213L431 214L430 213z"/>
<path style="fill:#aab5bd; stroke:none;" d="M83 214L84 215L83 214M131 214L132 215L131 214M229.333 214.667L229.667 215.333L229.333 214.667z"/>
<path style="fill:#4b6271; stroke:none;" d="M251 214L252 215L251 214z"/>
<path style="fill:#aab5bd; stroke:none;" d="M266 214L267 215L266 214M285 214L286 215L285 214z"/>
<path style="fill:#4b6271; stroke:none;" d="M409 214L410 215L409 214z"/>
<path style="fill:#aab5bd; stroke:none;" d="M430 214L431 215L430 214z"/>
<path style="fill:#4b6271; stroke:none;" d="M82 215L83 216L82 215M146 215L147 216L146 215z"/>
<path style="fill:#758793; stroke:none;" d="M251 215L252 216L251 215M284 215L285 216L284 215z"/>
<path style="fill:#4b6271; stroke:none;" d="M372 215L373 216L372 215z"/>
<path style="fill:#aab5bd; stroke:none;" d="M393 215L394 216L393 215M63 216L64 217L63 216M82 216L83 217L82 216z"/>
<path style="fill:#758793; stroke:none;" d="M107 216L107 306L108 306L108 244L107 216M146 216L146 306L147 306L147 244L146 216z"/>
<path style="fill:#4b6271; stroke:none;" d="M169 216L169 306L170 306L170 244L169 216M187 216L188 217L187 216z"/>
<path style="fill:#aab5bd; stroke:none;" d="M209.333 216.667L209.667 217.333L209.333 216.667z"/>
<path style="fill:#758793; stroke:none;" d="M229 216L230 217L229 216z"/>
<path style="fill:#aab5bd; stroke:none;" d="M251 216L252 217L251 216z"/>
<path style="fill:#758793; stroke:none;" d="M265 216L266 217L265 216z"/>
<path style="fill:#aab5bd; stroke:none;" d="M372 216L373 217L372 216z"/>
<path style="fill:#758793; stroke:none;" d="M393 216L394 217L393 216z"/>
<path style="fill:#aab5bd; stroke:none;" d="M408 216L409 217L408 216z"/>
<path style="fill:#4b6271; stroke:none;" d="M429 216L430 217L429 216z"/>
<path style="fill:#758793; stroke:none;" d="M81 217L82 218L81 217M187 217L188 218L187 217z"/>
<path style="fill:#4b6271; stroke:none;" d="M229.333 217.667L229.667 218.333L229.333 217.667z"/>
<path style="fill:#758793; stroke:none;" d="M283 217L284 218L283 217z"/>
<path style="fill:#4b6271; stroke:none;" d="M331 217L331 218L356 218L331 217z"/>
<path style="fill:#758793; stroke:none;" d="M408 217L409 218L408 217z"/>
<path style="fill:#aab5bd; stroke:none;" d="M429 217L430 218L429 217z"/>
<path style="fill:#758793; stroke:none;" d="M62 218L63 219L62 218z"/>
<path style="fill:#aab5bd; stroke:none;" d="M187 218L188 219L187 218z"/>
<path style="fill:#758793; stroke:none;" d="M209 218L210 219L209 218z"/>
<path style="fill:#4b6271; stroke:none;" d="M250 218L251 219L250 218M264 218L265 219L264 218M282 218L283 219L282 218M330 218L330 244L331 244L330 218M373 218L374 219L373 218z"/>
<path style="fill:#aab5bd; stroke:none;" d="M394 218L395 219L394 218z"/>
<path style="fill:#4b6271; stroke:none;" d="M408 218L409 219L408 218z"/>
<path style="fill:#aab5bd; stroke:none;" d="M80 219L81 220L80 219z"/>
<path style="fill:#4b6271; stroke:none;" d="M209 219L210 220L209 219z"/>
<path style="fill:#758793; stroke:none;" d="M250 219L251 220L250 219z"/>
<path style="fill:#aab5bd; stroke:none;" d="M282 219L283 220L282 219M373 219L374 220L373 219z"/>
<path style="fill:#758793; stroke:none;" d="M394 219L395 220L394 219z"/>
<path style="fill:#4b6271; stroke:none;" d="M428 219L429 220L428 219M61 220L62 221L61 220M79 220L80 221L79 220z"/>
<path style="fill:#aab5bd; stroke:none;" d="M228.333 220.667L228.667 221.333L228.333 220.667M250.333 220.667L250.667 221.333L250.333 220.667z"/>
<path style="fill:#4b6271; stroke:none;" d="M281 220L282 221L281 220M394 220L395 221L394 220z"/>
<path style="fill:#aab5bd; stroke:none;" d="M407 220L408 221L407 220M428 220L429 221L428 220M60 221L61 222L60 221M79 221L80 222L79 221z"/>
<path style="fill:#758793; stroke:none;" d="M188.333 221.667L188.667 222.333L188.333 221.667z"/>
<path style="fill:#aab5bd; stroke:none;" d="M262 221L263 222L262 221M281 221L282 222L281 221z"/>
<path style="fill:#4b6271; stroke:none;" d="M374 221L375 222L374 221M407 221L408 222L407 221M78 222L79 223L78 222z"/>
<path style="fill:#aab5bd; stroke:none;" d="M210.333 222.667L210.667 223.333L210.333 222.667z"/>
<path style="fill:#758793; stroke:none;" d="M228 222L229 223L228 222M280 222L281 223L280 222z"/>
<path style="fill:#aab5bd; stroke:none;" d="M374 222L375 223L374 222M395 222L396 223L395 222z"/>
<path style="fill:#4b6271; stroke:none;" d="M427 222L428 223L427 222z"/>
<path style="fill:#aab5bd; stroke:none;" d="M59 223L60 224L59 223M188 223L189 224L188 223z"/>
<path style="fill:#4b6271; stroke:none;" d="M228.333 223.667L228.667 224.333L228.333 223.667M249 223L250 224L249 223z"/>
<path style="fill:#758793; stroke:none;" d="M261 223L262 224L261 223M395 223L396 224L395 223z"/>
<path style="fill:#aab5bd; stroke:none;" d="M406 223L407 224L406 223M427 223L428 224L427 223z"/>
<path style="fill:#758793; stroke:none;" d="M77 224L78 225L77 224M210 224L211 225L210 224M249 224L250 225L249 224z"/>
<path style="fill:#aab5bd; stroke:none;" d="M279 224L280 225L279 224z"/>
<path style="fill:#4b6271; stroke:none;" d="M375 224L376 225L375 224z"/>
<path style="fill:#758793; stroke:none;" d="M406 224L407 225L406 224M58 225L59 226L58 225z"/>
<path style="fill:#4b6271; stroke:none;" d="M189 225L190 226L189 225M210 225L211 226L210 225z"/>
<path style="fill:#aab5bd; stroke:none;" d="M249.333 225.667L249.667 226.333L249.333 225.667z"/>
<path style="fill:#4b6271; stroke:none;" d="M260 225L261 226L260 225M278 225L279 226L278 225z"/>
<path style="fill:#aab5bd; stroke:none;" d="M375 225L376 226L375 225M396 225L397 226L396 225z"/>
<path style="fill:#4b6271; stroke:none;" d="M406 225L407 226L406 225M426 225L427 226L426 225z"/>
<path style="fill:#aab5bd; stroke:none;" d="M76 226L77 227L76 226z"/>
<path style="fill:#758793; stroke:none;" d="M189 226L190 227L189 226z"/>
<path style="fill:#aab5bd; stroke:none;" d="M227.333 226.667L227.667 227.333L227.333 226.667M259 226L260 227L259 226M278 226L279 227L278 226M285 226L286 227L285 226z"/>
<path style="fill:#758793; stroke:none;" d="M286 226L287 227L286 226z"/>
<path style="fill:#4b6271; stroke:none;" d="M287.667 226.333L288.333 226.667L287.667 226.333z"/>
<path style="fill:#758793; stroke:none;" d="M289 226L290 227L289 226z"/>
<path style="fill:#aab5bd; stroke:none;" d="M290 226L291 227L290 226z"/>
<path style="fill:#758793; stroke:none;" d="M396 226L397 227L396 226z"/>
<path style="fill:#aab5bd; stroke:none;" d="M426 226L427 227L426 226z"/>
<path style="fill:#4b6271; stroke:none;" d="M57 227L58 228L57 227M75 227L76 228L75 227z"/>
<path style="fill:#aab5bd; stroke:none;" d="M189.333 227.667L189.667 228.333L189.333 227.667z"/>
<path style="fill:#4b6271; stroke:none;" d="M277 227L278 228L277 227z"/>
<path style="fill:#aab5bd; stroke:none;" d="M283 227L284 228L283 227z"/>
<path style="fill:#213d4f; stroke:none;" d="M284.104 228.028C276.481 232.224 264.98 254.607 262.944 263C261.469 269.079 267.581 275.067 273.671 272.396C277.089 270.897 278.983 266.046 280.719 263C285.356 254.862 293.559 245.074 295.821 236C297.504 229.249 289.732 224.93 284.104 228.028z"/>
<path style="fill:#758793; stroke:none;" d="M292 227L293 228L292 227z"/>
<path style="fill:#4b6271; stroke:none;" d="M376 227L377 228L376 227M396 227L397 228L396 227z"/>
<path style="fill:#aab5bd; stroke:none;" d="M405 227L406 228L405 227M56 228L57 229L56 228M75 228L76 229L75 228z"/>
<path style="fill:#758793; stroke:none;" d="M82 228L83 229L82 228z"/>
<path style="fill:#4b6271; stroke:none;" d="M83 228L84 229L83 228z"/>
<path style="fill:#213d4f; stroke:none;" d="M84.0039 228.667C75.2401 230.441 63.3076 254.946 60.6991 263C58.8838 268.605 62.0531 275.983 68.9846 274.638C73.2006 273.82 75.0573 269.315 77.0108 266C82.0365 257.471 90.1703 247.509 92.912 238C94.4599 232.632 89.4218 227.57 84.0039 228.667z"/>
<path style="fill:#4b6271; stroke:none;" d="M87 228L88 229L87 228z"/>
<path style="fill:#aab5bd; stroke:none;" d="M88 228L89 229L88 228M211.333 228.667L211.667 229.333L211.333 228.667z"/>
<path style="fill:#758793; stroke:none;" d="M227 228L228 229L227 228z"/>
<path style="fill:#4b6271; stroke:none;" d="M248 228L249 229L248 228z"/>
<path style="fill:#aab5bd; stroke:none;" d="M258 228L259 229L258 228z"/>
<path style="fill:#758793; stroke:none;" d="M282 228L283 229L282 228z"/>
<path style="fill:#aab5bd; stroke:none;" d="M376 228L377 229L376 228z"/>
<path style="fill:#4b6271; stroke:none;" d="M405 228L406 229L405 228M425 228L426 229L425 228M74 229L75 230L74 229z"/>
<path style="fill:#758793; stroke:none;" d="M80 229L81 230L80 229z"/>
<path style="fill:#aab5bd; stroke:none;" d="M90 229L91 230L90 229z"/>
<path style="fill:#4b6271; stroke:none;" d="M227.333 229.667L227.667 230.333L227.333 229.667z"/>
<path style="fill:#758793; stroke:none;" d="M248 229L249 230L248 229M276 229L277 230L276 229z"/>
<path style="fill:#aab5bd; stroke:none;" d="M281 229L282 230L281 229M397 229L398 230L397 229M425 229L426 230L425 229M55 230L56 231L55 230z"/>
<path style="fill:#4b6271; stroke:none;" d="M79 230L80 231L79 230z"/>
<path style="fill:#758793; stroke:none;" d="M91 230L92 231L91 230z"/>
<path style="fill:#4b6271; stroke:none;" d="M190 230L191 231L190 230z"/>
<path style="fill:#758793; stroke:none;" d="M211 230L212 231L211 230z"/>
<path style="fill:#aab5bd; stroke:none;" d="M248.333 230.667L248.667 231.333L248.333 230.667z"/>
<path style="fill:#758793; stroke:none;" d="M257 230L258 231L257 230z"/>
<path style="fill:#4b6271; stroke:none;" d="M295 230L296 231L295 230z"/>
<path style="fill:#758793; stroke:none;" d="M377 230L378 231L377 230M397 230L398 231L397 230z"/>
<path style="fill:#aab5bd; stroke:none;" d="M404 230L405 231L404 230z"/>
<path style="fill:#758793; stroke:none;" d="M73 231L74 232L73 231z"/>
<path style="fill:#aab5bd; stroke:none;" d="M78 231L79 232L78 231M92 231L93 232L92 231z"/>
<path style="fill:#758793; stroke:none;" d="M190 231L191 232L190 231z"/>
<path style="fill:#4b6271; stroke:none;" d="M211 231L212 232L211 231z"/>
<path style="fill:#aab5bd; stroke:none;" d="M275 231L276 232L275 231z"/>
<path style="fill:#758793; stroke:none;" d="M280 231L281 232L280 231z"/>
<path style="fill:#aab5bd; stroke:none;" d="M377 231L378 232L377 231z"/>
<path style="fill:#758793; stroke:none;" d="M404 231L405 232L404 231z"/>
<path style="fill:#4b6271; stroke:none;" d="M424 231L425 232L424 231z"/>
<path style="fill:#758793; stroke:none;" d="M54 232L55 233L54 232z"/>
<path style="fill:#aab5bd; stroke:none;" d="M190.333 232.667L190.667 233.333L190.333 232.667M226.333 232.667L226.667 233.333L226.333 232.667z"/>
<path style="fill:#4b6271; stroke:none;" d="M256 232L257 233L256 232M274 232L275 233L274 232z"/>
<path style="fill:#758793; stroke:none;" d="M296 232L297 233L296 232z"/>
<path style="fill:#aab5bd; stroke:none;" d="M398 232L399 233L398 232z"/>
<path style="fill:#4b6271; stroke:none;" d="M404 232L405 233L404 232z"/>
<path style="fill:#aab5bd; stroke:none;" d="M424 232L425 233L424 232M72 233L73 234L72 233z"/>
<path style="fill:#758793; stroke:none;" d="M77 233L78 234L77 233z"/>
<path style="fill:#aab5bd; stroke:none;" d="M93 233L94 234L93 233z"/>
<path style="fill:#4b6271; stroke:none;" d="M247 233L248 234L247 233z"/>
<path style="fill:#aab5bd; stroke:none;" d="M274 233L275 234L274 233z"/>
<path style="fill:#4b6271; stroke:none;" d="M279 233L280 234L279 233M296 233L297 234L296 233z"/>
<path style="fill:#758793; stroke:none;" d="M378 233L379 234L378 233M398 233L399 234L398 233z"/>
<path style="fill:#4b6271; stroke:none;" d="M53 234L54 235L53 234M71 234L72 235L71 234M93 234L94 235L93 234z"/>
<path style="fill:#aab5bd; stroke:none;" d="M212.333 234.667L212.667 235.333L212.333 234.667z"/>
<path style="fill:#758793; stroke:none;" d="M226 234L227 235L226 234M247 234L248 235L247 234M255 234L256 235L255 234M273 234L274 235L273 234z"/>
<path style="fill:#aab5bd; stroke:none;" d="M278 234L279 235L278 234M378 234L379 235L378 234z"/>
<path style="fill:#4b6271; stroke:none;" d="M398 234L399 235L398 234z"/>
<path style="fill:#aab5bd; stroke:none;" d="M403 234L404 235L403 234z"/>
<path style="fill:#4b6271; stroke:none;" d="M423 234L424 235L423 234z"/>
<path style="fill:#aab5bd; stroke:none;" d="M71 235L72 236L71 235z"/>
<path style="fill:#4b6271; stroke:none;" d="M76 235L77 236L76 235M191 235L192 236L191 235M226 235L227 236L226 235z"/>
<path style="fill:#aab5bd; stroke:none;" d="M247 235L248 236L247 235z"/>
<path style="fill:#4b6271; stroke:none;" d="M255 235L256 236L255 235z"/>
<path style="fill:#758793; stroke:none;" d="M296 235L297 236L296 235z"/>
<path style="fill:#4b6271; stroke:none;" d="M403 235L404 236L403 235z"/>
<path style="fill:#aab5bd; stroke:none;" d="M423 235L424 236L423 235z"/>
<path style="fill:#758793; stroke:none;" d="M52 236L53 237L52 236M70 236L71 237L70 236z"/>
<path style="fill:#aab5bd; stroke:none;" d="M75 236L76 237L75 236z"/>
<path style="fill:#758793; stroke:none;" d="M191 236L192 237L191 236M212 236L213 237L212 236M272 236L273 237L272 236z"/>
<path style="fill:#aab5bd; stroke:none;" d="M277 236L278 237L277 236z"/>
<path style="fill:#758793; stroke:none;" d="M379 236L380 237L379 236z"/>
<path style="fill:#aab5bd; stroke:none;" d="M399 236L400 237L399 236z"/>
<path style="fill:#4b6271; stroke:none;" d="M52.3333 237.667L52.6667 238.333L52.3333 237.667M93 237L94 238L93 237z"/>
<path style="fill:#aab5bd; stroke:none;" d="M191 237L192 238L191 237z"/>
<path style="fill:#4b6271; stroke:none;" d="M212 237L213 238L212 237M255 237L256 238L255 237M271 237L272 238L271 237z"/>
<path style="fill:#758793; stroke:none;" d="M295 237L296 238L295 237z"/>
<path style="fill:#aab5bd; stroke:none;" d="M379 237L380 238L379 237z"/>
<path style="fill:#758793; stroke:none;" d="M399 237L400 238L399 237z"/>
<path style="fill:#aab5bd; stroke:none;" d="M402 237L403 238L402 237z"/>
<path style="fill:#758793; stroke:none;" d="M422 237L423 238L422 237M69 238L70 239L69 238M74 238L75 239L74 238z"/>
<path style="fill:#aab5bd; stroke:none;" d="M225.333 238.667L225.667 239.333L225.333 238.667z"/>
<path style="fill:#4b6271; stroke:none;" d="M246 238L247 239L246 238z"/>
<path style="fill:#758793; stroke:none;" d="M255 238L256 239L255 238z"/>
<path style="fill:#aab5bd; stroke:none;" d="M271 238L272 239L271 238z"/>
<path style="fill:#4b6271; stroke:none;" d="M276 238L277 239L276 238z"/>
<path style="fill:#758793; stroke:none;" d="M402 238L403 239L402 238z"/>
<path style="fill:#aab5bd; stroke:none;" d="M422 238L423 239L422 238z"/>
<path style="fill:#758793; stroke:none;" d="M52 239L53 240L52 239z"/>
<path style="fill:#4b6271; stroke:none;" d="M68 239L69 240L68 239z"/>
<path style="fill:#758793; stroke:none;" d="M92 239L93 240L92 239M246 239L247 240L246 239z"/>
<path style="fill:#aab5bd; stroke:none;" d="M255 239L256 240L255 239z"/>
<path style="fill:#4b6271; stroke:none;" d="M270 239L271 240L270 239z"/>
<path style="fill:#aab5bd; stroke:none;" d="M294 239L295 240L294 239z"/>
<path style="fill:#758793; stroke:none;" d="M380 239L381 240L380 239z"/>
<path style="fill:#aab5bd; stroke:none;" d="M400 239L401 240L400 239z"/>
<path style="fill:#4b6271; stroke:none;" d="M402 239L403 240L402 239z"/>
<path style="fill:#aab5bd; stroke:none;" d="M52 240L53 241L52 240M68 240L69 241L68 240z"/>
<path style="fill:#4b6271; stroke:none;" d="M73 240L74 241L73 240M192 240L193 241L192 240z"/>
<path style="fill:#aab5bd; stroke:none;" d="M213.333 240.667L213.667 241.333L213.333 240.667z"/>
<path style="fill:#758793; stroke:none;" d="M225 240L226 241L225 240z"/>
<path style="fill:#aab5bd; stroke:none;" d="M246 240L247 241L246 240z"/>
<path style="fill:#4b6271; stroke:none;" d="M256 240L257 241L256 240z"/>
<path style="fill:#aab5bd; stroke:none;" d="M270 240L271 241L270 240z"/>
<path style="fill:#4b6271; stroke:none;" d="M293 240L294 241L293 240z"/>
<path style="fill:#aab5bd; stroke:none;" d="M380 240L381 241L380 240z"/>
<path style="fill:#758793; stroke:none;" d="M400 240L401 241L400 240M421 240L422 241L421 240z"/>
<path style="fill:#4b6271; stroke:none;" d="M67 241L68 242L67 241z"/>
<path style="fill:#aab5bd; stroke:none;" d="M91 241L92 242L91 241z"/>
<path style="fill:#758793; stroke:none;" d="M192 241L193 242L192 241z"/>
<path style="fill:#4b6271; stroke:none;" d="M225 241L226 242L225 241z"/>
<path style="fill:#aab5bd; stroke:none;" d="M256 241L257 242L256 241z"/>
<path style="fill:#758793; stroke:none;" d="M269 241L270 242L269 241z"/>
<path style="fill:#aab5bd; stroke:none;" d="M274 241L275 242L274 241M293 241L294 242L293 241z"/>
<path style="fill:#4b6271; stroke:none;" d="M400 241L402 243L400 241z"/>
<path style="fill:#aab5bd; stroke:none;" d="M401 241L402 242L401 241M421 241L422 242L421 241z"/>
<path style="fill:#758793; stroke:none;" d="M53 242L54 243L53 242z"/>
<path style="fill:#aab5bd; stroke:none;" d="M67 242L68 243L67 242z"/>
<path style="fill:#4b6271; stroke:none;" d="M90 242L91 243L90 242z"/>
<path style="fill:#aab5bd; stroke:none;" d="M192 242L193 243L192 242z"/>
<path style="fill:#758793; stroke:none;" d="M213 242L214 243L213 242z"/>
<path style="fill:#aab5bd; stroke:none;" d="M257 242L258 243L257 242z"/>
<path style="fill:#758793; stroke:none;" d="M292 242L293 243L292 242M381 242L382 243L381 242z"/>
<path style="fill:#4b6271; stroke:none;" d="M54 243L55 244L54 243z"/>
<path style="fill:#758793; stroke:none;" d="M66 243L67 244L66 243z"/>
<path style="fill:#aab5bd; stroke:none;" d="M71 243L72 244L71 243M90 243L91 244L90 243z"/>
<path style="fill:#4b6271; stroke:none;" d="M213 243L214 244L213 243z"/>
<path style="fill:#758793; stroke:none;" d="M245.333 243.667L245.667 244.333L245.333 243.667M259 243L260 244L259 243z"/>
<path style="fill:#aab5bd; stroke:none;" d="M268 243L269 244L268 243z"/>
<path style="fill:#758793; stroke:none;" d="M273 243L274 244L273 243z"/>
<path style="fill:#aab5bd; stroke:none;" d="M381 243L382 244L381 243z"/>
<path style="fill:#758793; stroke:none;" d="M420 243L421 244L420 243z"/>
<path style="fill:#4b6271; stroke:none;" d="M55 244L56 245L55 244z"/>
<path style="fill:#758793; stroke:none;" d="M89 244L90 245L89 244z"/>
<path style="fill:#aab5bd; stroke:none;" d="M224.333 244.667L224.667 245.333L224.333 244.667z"/>
<path style="fill:#758793; stroke:none;" d="M261 244L262 245L261 244z"/>
<path style="fill:#4b6271; stroke:none;" d="M262 244L263 245L262 244M265 244L266 245L265 244z"/>
<path style="fill:#758793; stroke:none;" d="M266 244L267 245L266 244M291 244L292 245L291 244M354 244L354 263L355 263L354 244z"/>
<path style="fill:#aab5bd; stroke:none;" d="M420 244L421 245L420 244M56 245L57 246L56 245M65 245L66 246L65 245z"/>
<path style="fill:#758793; stroke:none;" d="M70 245L71 246L70 245z"/>
<path style="fill:#4b6271; stroke:none;" d="M193 245L194 246L193 245z"/>
<path style="fill:#aab5bd; stroke:none;" d="M245 245L246 246L245 245z"/>
<path style="fill:#4b6271; stroke:none;" d="M272 245L273 246L272 245M290 245L291 246L290 245z"/>
<path style="fill:#758793; stroke:none;" d="M382 245L383 246L382 245z"/>
<path style="fill:#aab5bd; stroke:none;" d="M58 246L59 247L58 246z"/>
<path style="fill:#758793; stroke:none;" d="M59 246L60 247L59 246z"/>
<path style="fill:#4b6271; stroke:none;" d="M60.6667 246.333L61.3333 246.667L60.6667 246.333z"/>
<path style="fill:#758793; stroke:none;" d="M62 246L63 247L62 246z"/>
<path style="fill:#aab5bd; stroke:none;" d="M63 246L64 247L63 246z"/>
<path style="fill:#758793; stroke:none;" d="M88 246L89 247L88 246M193 246L194 247L193 246z"/>
<path style="fill:#aab5bd; stroke:none;" d="M214.333 246.667L214.667 247.333L214.333 246.667z"/>
<path style="fill:#758793; stroke:none;" d="M224 246L225 247L224 246z"/>
<path style="fill:#aab5bd; stroke:none;" d="M290 246L291 247L290 246M382 246L383 247L382 246z"/>
<path style="fill:#758793; stroke:none;" d="M419 246L420 247L419 246z"/>
<path style="fill:#4b6271; stroke:none;" d="M69 247L70 248L69 247M87 247L88 248L87 247z"/>
<path style="fill:#aab5bd; stroke:none;" d="M193 247L194 248L193 247z"/>
<path style="fill:#4b6271; stroke:none;" d="M224 247L225 248L224 247M244 247L245 248L244 247M289 247L290 248L289 247z"/>
<path style="fill:#aab5bd; stroke:none;" d="M419 247L420 248L419 247M68 248L69 249L68 248M87 248L88 249L87 248z"/>
<path style="fill:#758793; stroke:none;" d="M214 248L215 249L214 248M244 248L245 249L244 248z"/>
<path style="fill:#aab5bd; stroke:none;" d="M270 248L271 249L270 248M289 248L290 249L289 248z"/>
<path style="fill:#758793; stroke:none;" d="M383 248L384 249L383 248z"/>
<path style="fill:#4b6271; stroke:none;" d="M86 249L87 250L86 249M214 249L215 250L214 249z"/>
<path style="fill:#aab5bd; stroke:none;" d="M244.333 249.667L244.667 250.333L244.333 249.667z"/>
<path style="fill:#758793; stroke:none;" d="M288 249L289 250L288 249z"/>
<path style="fill:#aab5bd; stroke:none;" d="M383 249L384 250L383 249z"/>
<path style="fill:#758793; stroke:none;" d="M418 249L419 250L418 249z"/>
<path style="fill:#aab5bd; stroke:none;" d="M67 250L68 251L67 250M86 250L87 251L86 250z"/>
<path style="fill:#758793; stroke:none;" d="M194 250L195 251L194 250z"/>
<path style="fill:#aab5bd; stroke:none;" d="M223.333 250.667L223.667 251.333L223.333 250.667z"/>
<path style="fill:#758793; stroke:none;" d="M269 250L270 251L269 250z"/>
<path style="fill:#aab5bd; stroke:none;" d="M418 250L419 251L418 250z"/>
<path style="fill:#758793; stroke:none;" d="M85 251L86 252L85 251z"/>
<path style="fill:#aab5bd; stroke:none;" d="M194.333 251.667L194.667 252.333L194.333 251.667M287 251L288 252L287 251z"/>
<path style="fill:#758793; stroke:none;" d="M384 251L385 252L384 251M66 252L67 253L66 252z"/>
<path style="fill:#aab5bd; stroke:none;" d="M215.333 252.667L215.667 253.333L215.333 252.667z"/>
<path style="fill:#758793; stroke:none;" d="M223 252L224 253L223 252z"/>
<path style="fill:#4b6271; stroke:none;" d="M243 252L244 253L243 252M268 252L269 253L268 252M286 252L287 253L286 252z"/>
<path style="fill:#aab5bd; stroke:none;" d="M384 252L385 253L384 252z"/>
<path style="fill:#758793; stroke:none;" d="M417 252L418 253L417 252z"/>
<path style="fill:#aab5bd; stroke:none;" d="M84 253L85 254L84 253z"/>
<path style="fill:#4b6271; stroke:none;" d="M223 253L224 254L223 253z"/>
<path style="fill:#758793; stroke:none;" d="M243 253L244 254L243 253z"/>
<path style="fill:#aab5bd; stroke:none;" d="M267 253L268 254L267 253M286 253L287 254L286 253M417 253L418 254L417 253z"/>
<path style="fill:#4b6271; stroke:none;" d="M65 254L66 255L65 254M83 254L84 255L83 254M195 254L196 255L195 254z"/>
<path style="fill:#758793; stroke:none;" d="M215 254L216 255L215 254z"/>
<path style="fill:#aab5bd; stroke:none;" d="M243.333 254.667L243.667 255.333L243.333 254.667z"/>
<path style="fill:#4b6271; stroke:none;" d="M285 254L286 255L285 254z"/>
<path style="fill:#758793; stroke:none;" d="M385 254L386 255L385 254z"/>
<path style="fill:#aab5bd; stroke:none;" d="M64 255L65 256L64 255M83 255L84 256L83 255z"/>
<path style="fill:#758793; stroke:none;" d="M195 255L196 256L195 255z"/>
<path style="fill:#4b6271; stroke:none;" d="M215 255L216 256L215 255z"/>
<path style="fill:#aab5bd; stroke:none;" d="M266 255L267 256L266 255z"/>
<path style="fill:#758793; stroke:none;" d="M292 255L293 256L292 255z"/>
<path style="fill:#4b6271; stroke:none;" d="M293 255L294 256L293 255z"/>
<path style="fill:#213d4f; stroke:none;" d="M294.004 255.677C289.71 256.492 287.296 260.573 285.204 264C280.187 272.221 273.039 281.788 270.173 291C268.478 296.446 272.835 302.85 278.96 301.638C283.02 300.835 285.094 296.216 286.989 293C291.953 284.577 300.115 274.4 302.74 265C304.19 259.806 299.283 254.676 294.004 255.677z"/>
<path style="fill:#758793; stroke:none;" d="M297 255L298 256L297 255z"/>
<path style="fill:#aab5bd; stroke:none;" d="M298 255L299 256L298 255M385 255L386 256L385 255z"/>
<path style="fill:#758793; stroke:none;" d="M416 255L417 256L416 255z"/>
<path style="fill:#4b6271; stroke:none;" d="M82 256L83 257L82 256z"/>
<path style="fill:#aab5bd; stroke:none;" d="M91 256L91 257L94 257L91 256M195.333 256.667L195.667 257.333L195.333 256.667M222.333 256.667L222.667 257.333L222.333 256.667z"/>
<path style="fill:#758793; stroke:none;" d="M284 256L285 257L284 256M290 256L291 257L290 256z"/>
<path style="fill:#4b6271; stroke:none;" d="M299 256L300 257L299 256z"/>
<path style="fill:#aab5bd; stroke:none;" d="M300 256L301 257L300 256M416 256L417 257L416 256M63 257L64 258L63 257M88 257L89 258L88 257z"/>
<path style="fill:#4b6271; stroke:none;" d="M89 257L90 258L89 257z"/>
<path style="fill:#213d4f; stroke:none;" d="M90.0432 257.668C81.7824 260.138 69.9993 284.028 67.6497 292C66.0361 297.474 69.1247 305.041 75.9599 303.522C80.0495 302.614 81.9586 298.281 83.8503 295C88.6864 286.613 98.3225 275.527 100.112 266C101.159 260.424 95.1328 256.147 90.0432 257.668z"/>
<path style="fill:#758793; stroke:none;" d="M95 257L96 258L95 257z"/>
<path style="fill:#aab5bd; stroke:none;" d="M96 257L97 258L96 257z"/>
<path style="fill:#4b6271; stroke:none;" d="M242 257L243 258L242 257z"/>
<path style="fill:#758793; stroke:none;" d="M265 257L266 258L265 257z"/>
<path style="fill:#4b6271; stroke:none;" d="M289 257L290 258L289 257z"/>
<path style="fill:#aab5bd; stroke:none;" d="M301 257L302 258L301 257z"/>
<path style="fill:#758793; stroke:none;" d="M386 257L387 258L386 257M81 258L82 259L81 258z"/>
<path style="fill:#4b6271; stroke:none;" d="M87 258L88 259L87 258z"/>
<path style="fill:#758793; stroke:none;" d="M97 258L98 259L97 258z"/>
<path style="fill:#aab5bd; stroke:none;" d="M216.333 258.667L216.667 259.333L216.333 258.667z"/>
<path style="fill:#758793; stroke:none;" d="M222 258L223 259L222 258M242 258L243 259L242 258z"/>
<path style="fill:#aab5bd; stroke:none;" d="M283 258L284 259L283 258z"/>
<path style="fill:#758793; stroke:none;" d="M288 258L289 259L288 258z"/>
<path style="fill:#aab5bd; stroke:none;" d="M302 258L303 259L302 258M386 258L387 259L386 258z"/>
<path style="fill:#758793; stroke:none;" d="M415 258L416 259L415 258z"/>
<path style="fill:#4b6271; stroke:none;" d="M62 259L63 260L62 259z"/>
<path style="fill:#758793; stroke:none;" d="M98 259L99 260L98 259z"/>
<path style="fill:#4b6271; stroke:none;" d="M196 259L197 260L196 259M222 259L223 260L222 259z"/>
<path style="fill:#aab5bd; stroke:none;" d="M242 259L243 260L242 259z"/>
<path style="fill:#4b6271; stroke:none;" d="M264 259L265 260L264 259M282 259L283 260L282 259M302 259L303 260L302 259M387 259L388 260L387 259z"/>
<path style="fill:#aab5bd; stroke:none;" d="M415 259L416 260L415 259M80 260L81 261L80 260z"/>
<path style="fill:#758793; stroke:none;" d="M85 260L86 261L85 260M99 260L100 261L99 260M196 260L197 261L196 260M216 260L217 261L216 260z"/>
<path style="fill:#aab5bd; stroke:none;" d="M263 260L264 261L263 260M282 260L283 261L282 260z"/>
<path style="fill:#4b6271; stroke:none;" d="M287 260L288 261L287 260z"/>
<path style="fill:#aab5bd; stroke:none;" d="M303 260L304 261L303 260z"/>
<path style="fill:#758793; stroke:none;" d="M387 260L388 261L387 260z"/>
<path style="fill:#4b6271; stroke:none;" d="M79 261L80 262L79 261z"/>
<path style="fill:#aab5bd; stroke:none;" d="M196.333 261.667L196.667 262.333L196.333 261.667z"/>
<path style="fill:#4b6271; stroke:none;" d="M216 261L217 262L216 261z"/>
<path style="fill:#758793; stroke:none;" d="M281 261L282 262L281 261z"/>
<path style="fill:#aab5bd; stroke:none;" d="M286 261L287 262L286 261z"/>
<path style="fill:#758793; stroke:none;" d="M303 261L304 262L303 261z"/>
<path style="fill:#aab5bd; stroke:none;" d="M387 261L388 262L387 261z"/>
<path style="fill:#758793; stroke:none;" d="M414 261L415 262L414 261z"/>
<path style="fill:#aab5bd; stroke:none;" d="M60 262L61 263L60 262M79 262L80 263L79 262z"/>
<path style="fill:#4b6271; stroke:none;" d="M84 262L85 263L84 262z"/>
<path style="fill:#758793; stroke:none;" d="M100 262L101 263L100 262z"/>
<path style="fill:#aab5bd; stroke:none;" d="M221.333 262.667L221.667 263.333L221.333 262.667z"/>
<path style="fill:#4b6271; stroke:none;" d="M241 262L242 263L241 262z"/>
<path style="fill:#aab5bd; stroke:none;" d="M262 262L263 263L262 262z"/>
<path style="fill:#4b6271; stroke:none;" d="M303 262L304 263L303 262M388 262L389 263L388 262z"/>
<path style="fill:#aab5bd; stroke:none;" d="M414 262L415 263L414 262z"/>
<path style="fill:#758793; stroke:none;" d="M78 263L79 264L78 263z"/>
<path style="fill:#aab5bd; stroke:none;" d="M83 263L84 264L83 263z"/>
<path style="fill:#4b6271; stroke:none;" d="M100 263L101 264L100 263z"/>
<path style="fill:#758793; stroke:none;" d="M241 263L242 264L241 263z"/>
<path style="fill:#4b6271; stroke:none;" d="M262 263L263 264L262 263z"/>
<path style="fill:#758793; stroke:none;" d="M280 263L281 264L280 263z"/>
<path style="fill:#aab5bd; stroke:none;" d="M285 263L286 264L285 263M331 263L331 264L355 264L331 263z"/>
<path style="fill:#758793; stroke:none;" d="M388 263L389 264L388 263z"/>
<path style="fill:#aab5bd; stroke:none;" d="M59 264L60 265L59 264z"/>
<path style="fill:#4b6271; stroke:none;" d="M197 264L198 265L197 264z"/>
<path style="fill:#aab5bd; stroke:none;" d="M217.333 264.667L217.667 265.333L217.333 264.667z"/>
<path style="fill:#758793; stroke:none;" d="M221 264L222 265L221 264z"/>
<path style="fill:#aab5bd; stroke:none;" d="M241 264L242 265L241 264M303 264L304 265L303 264z"/>
<path style="fill:#4b6271; stroke:none;" d="M330 264L330 306L331 306C331 294.043 334.611 274.988 330 264z"/>
<path style="fill:#aab5bd; stroke:none;" d="M388 264L389 265L388 264z"/>
<path style="fill:#758793; stroke:none;" d="M413 264L414 265L413 264M59 265L60 266L59 265M77 265L78 266L77 265M82 265L83 266L82 265M197 265L198 266L197 265z"/>
<path style="fill:#4b6271; stroke:none;" d="M221 265L222 266L221 265z"/>
<path style="fill:#aab5bd; stroke:none;" d="M279 265L280 266L279 265z"/>
<path style="fill:#4b6271; stroke:none;" d="M284 265L285 266L284 265M389 265L390 266L389 265z"/>
<path style="fill:#aab5bd; stroke:none;" d="M413 265L414 266L413 265z"/>
<path style="fill:#4b6271; stroke:none;" d="M59.3333 266.667L59.6667 267.333L59.3333 266.667M76 266L77 267L76 266z"/>
<path style="fill:#758793; stroke:none;" d="M100 266L101 267L100 266z"/>
<path style="fill:#aab5bd; stroke:none;" d="M197 266L198 267L197 266z"/>
<path style="fill:#758793; stroke:none;" d="M217 266L218 267L217 266z"/>
<path style="fill:#4b6271; stroke:none;" d="M262 266L263 267L262 266M278 266L279 267L278 266z"/>
<path style="fill:#aab5bd; stroke:none;" d="M302 266L303 267L302 266z"/>
<path style="fill:#758793; stroke:none;" d="M389 266L389 306L390 306C390 294.566 393.411 276.512 389 266z"/>
<path style="fill:#aab5bd; stroke:none;" d="M76 267L77 268L76 267z"/>
<path style="fill:#4b6271; stroke:none;" d="M81 267L82 268L81 267M217 267L218 268L217 267M240 267L241 268L240 267z"/>
<path style="fill:#758793; stroke:none;" d="M262 267L263 268L262 267z"/>
<path style="fill:#aab5bd; stroke:none;" d="M278 267L279 268L278 267z"/>
<path style="fill:#4b6271; stroke:none;" d="M301 267L302 268L301 267z"/>
<path style="fill:#758793; stroke:none;" d="M59 268L60 269L59 268z"/>
<path style="fill:#4b6271; stroke:none;" d="M75 268L76 269L75 268z"/>
<path style="fill:#aab5bd; stroke:none;" d="M99 268L100 269L99 268M220.333 268.667L220.667 269.333L220.333 268.667z"/>
<path style="fill:#758793; stroke:none;" d="M240 268L241 269L240 268M277 268L278 269L277 268z"/>
<path style="fill:#aab5bd; stroke:none;" d="M282 268L283 269L282 268M301 268L302 269L301 268M59 269L60 270L59 269M75 269L76 270L75 269z"/>
<path style="fill:#4b6271; stroke:none;" d="M98 269L99 270L98 269M198 269L199 270L198 269z"/>
<path style="fill:#aab5bd; stroke:none;" d="M240 269L241 270L240 269z"/>
<path style="fill:#4b6271; stroke:none;" d="M263 269L264 270L263 269z"/>
<path style="fill:#758793; stroke:none;" d="M300 269L301 270L300 269M74 270L75 271L74 270z"/>
<path style="fill:#aab5bd; stroke:none;" d="M79 270L80 271L79 270M98 270L99 271L98 270z"/>
<path style="fill:#758793; stroke:none;" d="M198 270L199 271L198 270z"/>
<path style="fill:#aab5bd; stroke:none;" d="M218 270L219 271L218 270z"/>
<path style="fill:#758793; stroke:none;" d="M220 270L221 271L220 270z"/>
<path style="fill:#aab5bd; stroke:none;" d="M276 270L277 271L276 270z"/>
<path style="fill:#758793; stroke:none;" d="M281 270L282 271L281 270z"/>
<path style="fill:#aab5bd; stroke:none;" d="M60 271L61 272L60 271z"/>
<path style="fill:#758793; stroke:none;" d="M97 271L98 272L97 271z"/>
<path style="fill:#aab5bd; stroke:none;" d="M198 271L199 272L198 271z"/>
<path style="fill:#758793; stroke:none;" d="M218.333 271.667L218.667 272.333L218.333 271.667z"/>
<path style="fill:#4b6271; stroke:none;" d="M220 271L221 272L220 271M265 271L266 272L265 271M275 271L276 272L275 271z"/>
<path style="fill:#758793; stroke:none;" d="M299 271L300 272L299 271M61 272L62 273L61 272z"/>
<path style="fill:#aab5bd; stroke:none;" d="M73 272L74 273L73 272z"/>
<path style="fill:#758793; stroke:none;" d="M78 272L79 273L78 272M239 272L240 273L239 272z"/>
<path style="fill:#aab5bd; stroke:none;" d="M266 272L267 273L266 272z"/>
<path style="fill:#4b6271; stroke:none;" d="M280 272L281 273L280 272M298 272L299 273L298 272z"/>
<path style="fill:#aab5bd; stroke:none;" d="M62 273L63 274L62 273z"/>
<path style="fill:#4b6271; stroke:none;" d="M72 273L73 274L72 273z"/>
<path style="fill:#758793; stroke:none;" d="M96 273L97 274L96 273z"/>
<path style="fill:#4b6271; stroke:none;" d="M218 273L219 274L218 273z"/>
<path style="fill:#aab5bd; stroke:none;" d="M239.333 273.667L239.667 274.333L239.333 273.667M268 273L269 274L268 273z"/>
<path style="fill:#758793; stroke:none;" d="M269 273L270 274L269 273z"/>
<path style="fill:#4b6271; stroke:none;" d="M270.667 273.333L271.333 273.667L270.667 273.333z"/>
<path style="fill:#758793; stroke:none;" d="M272 273L273 274L272 273z"/>
<path style="fill:#aab5bd; stroke:none;" d="M273 273L274 274L273 273M279 273L280 274L279 273M298 273L299 274L298 273z"/>
<path style="fill:#758793; stroke:none;" d="M64 274L65 275L64 274z"/>
<path style="fill:#4b6271; stroke:none;" d="M71 274L72 275L71 274M77 274L78 275L77 274M95 274L96 275L95 274M199 274L200 275L199 274z"/>
<path style="fill:#aab5bd; stroke:none;" d="M219 274L220 275L219 274z"/>
<path style="fill:#4b6271; stroke:none;" d="M297 274L298 275L297 274z"/>
<path style="fill:#aab5bd; stroke:none;" d="M66 275L67 276L66 275z"/>
<path style="fill:#758793; stroke:none;" d="M67.6667 275.333L68.3333 275.667L67.6667 275.333z"/>
<path style="fill:#aab5bd; stroke:none;" d="M69 275L70 276L69 275M76 275L77 276L76 275M95 275L96 276L95 275z"/>
<path style="fill:#758793; stroke:none;" d="M199 275L200 276L199 275M219 275L220 276L219 275z"/>
<path style="fill:#aab5bd; stroke:none;" d="M278 275L279 276L278 275M297 275L298 276L297 275z"/>
<path style="fill:#4b6271; stroke:none;" d="M94 276L95 277L94 276z"/>
<path style="fill:#aab5bd; stroke:none;" d="M199 276L200 277L199 276z"/>
<path style="fill:#4b6271; stroke:none;" d="M238 276L239 277L238 276z"/>
<path style="fill:#758793; stroke:none;" d="M296 276L297 277L296 276z"/>
<path style="fill:#aab5bd; stroke:none;" d="M75 277L76 278L75 277M94 277L95 278L94 277z"/>
<path style="fill:#758793; stroke:none;" d="M238 277L239 278L238 277M277 277L278 278L277 277M93 278L94 279L93 278z"/>
<path style="fill:#aab5bd; stroke:none;" d="M238.333 278.667L238.667 279.333L238.333 278.667M295 278L296 279L295 278z"/>
<path style="fill:#758793; stroke:none;" d="M74 279L75 280L74 279M200 279L201 280L200 279z"/>
<path style="fill:#4b6271; stroke:none;" d="M276 279L277 280L276 279M294 279L295 280L294 279z"/>
<path style="fill:#aab5bd; stroke:none;" d="M92 280L93 281L92 280M200.333 280.667L200.667 281.333L200.333 280.667M275 280L276 281L275 280M294 280L295 281L294 280z"/>
<path style="fill:#4b6271; stroke:none;" d="M73 281L74 282L73 281M91 281L92 282L91 281M237 281L238 282L237 281M293 281L294 282L293 281z"/>
<path style="fill:#aab5bd; stroke:none;" d="M72 282L73 283L72 282M91 282L92 283L91 282z"/>
<path style="fill:#758793; stroke:none;" d="M237 282L238 283L237 282z"/>
<path style="fill:#aab5bd; stroke:none;" d="M274 282L275 283L274 282z"/>
<path style="fill:#4b6271; stroke:none;" d="M90 283L91 284L90 283M201 283L202 284L201 283z"/>
<path style="fill:#aab5bd; stroke:none;" d="M237.333 283.667L237.667 284.333L237.333 283.667z"/>
<path style="fill:#758793; stroke:none;" d="M292 283L293 284L292 283z"/>
<path style="fill:#aab5bd; stroke:none;" d="M71 284L72 285L71 284z"/>
<path style="fill:#758793; stroke:none;" d="M201 284L202 285L201 284M273 284L274 285L273 284M89 285L90 286L89 285z"/>
<path style="fill:#aab5bd; stroke:none;" d="M201.333 285.667L201.667 286.333L201.333 285.667M291 285L292 286L291 285z"/>
<path style="fill:#4b6271; stroke:none;" d="M70 286L71 287L70 286M236 286L237 287L236 286M272 286L273 287L272 286M290 286L291 287L290 286z"/>
<path style="fill:#aab5bd; stroke:none;" d="M88 287L89 288L88 287z"/>
<path style="fill:#758793; stroke:none;" d="M236 287L237 288L236 287z"/>
<path style="fill:#aab5bd; stroke:none;" d="M271 287L272 288L271 287M290 287L291 288L290 287z"/>
<path style="fill:#4b6271; stroke:none;" d="M87 288L88 289L87 288M202 288L203 289L202 288z"/>
<path style="fill:#aab5bd; stroke:none;" d="M236 288L237 289L236 288z"/>
<path style="fill:#758793; stroke:none;" d="M289 288L290 289L289 288z"/>
<path style="fill:#aab5bd; stroke:none;" d="M68 289L69 290L68 289M87 289L88 290L87 289z"/>
<path style="fill:#758793; stroke:none;" d="M202 289L203 290L202 289M270 289L271 290L270 289M86 290L87 291L86 290z"/>
<path style="fill:#aab5bd; stroke:none;" d="M202.333 290.667L202.667 291.333L202.333 290.667z"/>
<path style="fill:#758793; stroke:none;" d="M288 290L289 291L288 290M67 291L68 292L67 291z"/>
<path style="fill:#4b6271; stroke:none;" d="M235 291L236 292L235 291z"/>
<path style="fill:#758793; stroke:none;" d="M269 291L270 292L269 291M85 292L86 293L85 292M235 292L236 293L235 292z"/>
<path style="fill:#4b6271; stroke:none;" d="M269 292L270 293L269 292z"/>
<path style="fill:#aab5bd; stroke:none;" d="M287 292L288 293L287 292M66 293L67 294L66 293z"/>
<path style="fill:#4b6271; stroke:none;" d="M84 293L85 294L84 293M203 293L204 294L203 293z"/>
<path style="fill:#aab5bd; stroke:none;" d="M235 293L236 294L235 293z"/>
<path style="fill:#4b6271; stroke:none;" d="M286 293L287 294L286 293M66 294L66 297L67 297L66 294z"/>
<path style="fill:#aab5bd; stroke:none;" d="M84 294L85 295L84 294z"/>
<path style="fill:#758793; stroke:none;" d="M203 294L204 295L203 294z"/>
<path style="fill:#aab5bd; stroke:none;" d="M286 294L287 295L286 294z"/>
<path style="fill:#4b6271; stroke:none;" d="M83 295L84 296L83 295z"/>
<path style="fill:#aab5bd; stroke:none;" d="M203 295L204 296L203 295z"/>
<path style="fill:#4b6271; stroke:none;" d="M269 295L270 296L269 295z"/>
<path style="fill:#758793; stroke:none;" d="M285 295L286 296L285 295z"/>
<path style="fill:#aab5bd; stroke:none;" d="M83 296L84 297L83 296z"/>
<path style="fill:#4b6271; stroke:none;" d="M234 296L235 297L234 296z"/>
<path style="fill:#758793; stroke:none;" d="M269 296L270 297L269 296M66 297L67 298L66 297M82 297L83 298L82 297M234 297L235 298L234 297z"/>
<path style="fill:#aab5bd; stroke:none;" d="M284 297L285 298L284 297M66 298L67 299L66 298z"/>
<path style="fill:#4b6271; stroke:none;" d="M204 298L205 299L204 298z"/>
<path style="fill:#aab5bd; stroke:none;" d="M234 298L235 299L234 298z"/>
<path style="fill:#758793; stroke:none;" d="M270 298L271 299L270 298z"/>
<path style="fill:#4b6271; stroke:none;" d="M283 298L284 299L283 298M67 299L68 300L67 299z"/>
<path style="fill:#aab5bd; stroke:none;" d="M81 299L82 300L81 299z"/>
<path style="fill:#758793; stroke:none;" d="M204 299L205 300L204 299z"/>
<path style="fill:#4b6271; stroke:none;" d="M271 299L272 300L271 299z"/>
<path style="fill:#aab5bd; stroke:none;" d="M283 299L284 300L283 299M67 300L68 301L67 300z"/>
<path style="fill:#4b6271; stroke:none;" d="M80 300L81 301L80 300z"/>
<path style="fill:#aab5bd; stroke:none;" d="M204 300L205 301L204 300z"/>
<path style="fill:#758793; stroke:none;" d="M272 300L273 301L272 300z"/>
<path style="fill:#4b6271; stroke:none;" d="M282 300L283 301L282 300z"/>
<path style="fill:#aab5bd; stroke:none;" d="M68 301L69 302L68 301M80 301L81 302L80 301z"/>
<path style="fill:#758793; stroke:none;" d="M233 301L234 302L233 301z"/>
<path style="fill:#4b6271; stroke:none;" d="M274 301L275 302L274 301M281 301L282 302L281 301z"/>
<path style="fill:#758793; stroke:none;" d="M79 302L80 303L79 302z"/>
<path style="fill:#aab5bd; stroke:none;" d="M233.333 302.667L233.667 303.333L233.333 302.667M276 302L277 303L276 302z"/>
<path style="fill:#758793; stroke:none;" d="M277.667 302.333L278.333 302.667L277.667 302.333z"/>
<path style="fill:#aab5bd; stroke:none;" d="M279 302L280 303L279 302M71 303L72 304L71 303z"/>
<path style="fill:#4b6271; stroke:none;" d="M77 303L78 304L77 303z"/>
<path style="fill:#aab5bd; stroke:none;" d="M78 303L79 304L78 303z"/>
<path style="fill:#4b6271; stroke:none;" d="M205 303L206 304L205 303z"/>
<path style="fill:#aab5bd; stroke:none;" d="M74.6667 304.333L75.3333 304.667L74.6667 304.333z"/>
<path style="fill:#758793; stroke:none;" d="M205 304L206 305L205 304z"/>
<path style="fill:#aab5bd; stroke:none;" d="M205 305L206 306L205 305z"/>
<path style="fill:#4b6271; stroke:none;" d="M232 305L233 306L232 305z"/>
</svg>
